<mxfile host="app.diagrams.net" modified="2024-01-10T15:08:02.331Z" agent="Mozilla/5.0 (Windows NT 10.0; Win64; x64) AppleWebKit/537.36 (KHTML, like Gecko) Chrome/120.0.0.0 Safari/537.36" etag="uOlI6S0gREa2twu9RZIS" version="22.1.18" type="device" pages="2">
  <diagram id="R2lEEEUBdFMjLlhIrx00" name="Page-1">
    <mxGraphModel dx="4536" dy="1491" grid="1" gridSize="10" guides="1" tooltips="1" connect="1" arrows="1" fold="1" page="1" pageScale="1" pageWidth="850" pageHeight="1100" math="0" shadow="0" extFonts="Permanent Marker^https://fonts.googleapis.com/css?family=Permanent+Marker">
      <root>
        <mxCell id="0" />
        <mxCell id="1" parent="0" />
        <mxCell id="C-vyLk0tnHw3VtMMgP7b-23" value="BROKER" style="shape=table;startSize=30;container=1;collapsible=1;childLayout=tableLayout;fixedRows=1;rowLines=0;fontStyle=1;align=center;resizeLast=1;" parent="1" vertex="1">
          <mxGeometry x="20" y="50" width="250" height="100" as="geometry" />
        </mxCell>
        <mxCell id="C-vyLk0tnHw3VtMMgP7b-24" value="" style="shape=partialRectangle;collapsible=0;dropTarget=0;pointerEvents=0;fillColor=none;points=[[0,0.5],[1,0.5]];portConstraint=eastwest;top=0;left=0;right=0;bottom=1;" parent="C-vyLk0tnHw3VtMMgP7b-23" vertex="1">
          <mxGeometry y="30" width="250" height="30" as="geometry" />
        </mxCell>
        <mxCell id="C-vyLk0tnHw3VtMMgP7b-25" value="PK" style="shape=partialRectangle;overflow=hidden;connectable=0;fillColor=none;top=0;left=0;bottom=0;right=0;fontStyle=1;" parent="C-vyLk0tnHw3VtMMgP7b-24" vertex="1">
          <mxGeometry width="30" height="30" as="geometry">
            <mxRectangle width="30" height="30" as="alternateBounds" />
          </mxGeometry>
        </mxCell>
        <mxCell id="C-vyLk0tnHw3VtMMgP7b-26" value="id_broker" style="shape=partialRectangle;overflow=hidden;connectable=0;fillColor=none;top=0;left=0;bottom=0;right=0;align=left;spacingLeft=6;fontStyle=5;" parent="C-vyLk0tnHw3VtMMgP7b-24" vertex="1">
          <mxGeometry x="30" width="220" height="30" as="geometry">
            <mxRectangle width="220" height="30" as="alternateBounds" />
          </mxGeometry>
        </mxCell>
        <mxCell id="C-vyLk0tnHw3VtMMgP7b-27" value="" style="shape=partialRectangle;collapsible=0;dropTarget=0;pointerEvents=0;fillColor=none;points=[[0,0.5],[1,0.5]];portConstraint=eastwest;top=0;left=0;right=0;bottom=0;" parent="C-vyLk0tnHw3VtMMgP7b-23" vertex="1">
          <mxGeometry y="60" width="250" height="30" as="geometry" />
        </mxCell>
        <mxCell id="C-vyLk0tnHw3VtMMgP7b-28" value="" style="shape=partialRectangle;overflow=hidden;connectable=0;fillColor=none;top=0;left=0;bottom=0;right=0;" parent="C-vyLk0tnHw3VtMMgP7b-27" vertex="1">
          <mxGeometry width="30" height="30" as="geometry">
            <mxRectangle width="30" height="30" as="alternateBounds" />
          </mxGeometry>
        </mxCell>
        <mxCell id="C-vyLk0tnHw3VtMMgP7b-29" value="nume" style="shape=partialRectangle;overflow=hidden;connectable=0;fillColor=none;top=0;left=0;bottom=0;right=0;align=left;spacingLeft=6;" parent="C-vyLk0tnHw3VtMMgP7b-27" vertex="1">
          <mxGeometry x="30" width="220" height="30" as="geometry">
            <mxRectangle width="220" height="30" as="alternateBounds" />
          </mxGeometry>
        </mxCell>
        <mxCell id="0l41ODt3sagTzn-8cAt7-6" value="CLIENT" style="shape=table;startSize=30;container=1;collapsible=1;childLayout=tableLayout;fixedRows=1;rowLines=0;fontStyle=1;align=center;resizeLast=1;" parent="1" vertex="1">
          <mxGeometry x="420" y="20" width="220" height="160" as="geometry" />
        </mxCell>
        <mxCell id="0l41ODt3sagTzn-8cAt7-7" value="" style="shape=partialRectangle;collapsible=0;dropTarget=0;pointerEvents=0;fillColor=none;points=[[0,0.5],[1,0.5]];portConstraint=eastwest;top=0;left=0;right=0;bottom=1;" parent="0l41ODt3sagTzn-8cAt7-6" vertex="1">
          <mxGeometry y="30" width="220" height="30" as="geometry" />
        </mxCell>
        <mxCell id="0l41ODt3sagTzn-8cAt7-8" value="PK" style="shape=partialRectangle;overflow=hidden;connectable=0;fillColor=none;top=0;left=0;bottom=0;right=0;fontStyle=1;" parent="0l41ODt3sagTzn-8cAt7-7" vertex="1">
          <mxGeometry width="30" height="30" as="geometry">
            <mxRectangle width="30" height="30" as="alternateBounds" />
          </mxGeometry>
        </mxCell>
        <mxCell id="0l41ODt3sagTzn-8cAt7-9" value="id_client" style="shape=partialRectangle;overflow=hidden;connectable=0;fillColor=none;top=0;left=0;bottom=0;right=0;align=left;spacingLeft=6;fontStyle=5;" parent="0l41ODt3sagTzn-8cAt7-7" vertex="1">
          <mxGeometry x="30" width="190" height="30" as="geometry">
            <mxRectangle width="190" height="30" as="alternateBounds" />
          </mxGeometry>
        </mxCell>
        <mxCell id="0l41ODt3sagTzn-8cAt7-10" value="" style="shape=partialRectangle;collapsible=0;dropTarget=0;pointerEvents=0;fillColor=none;points=[[0,0.5],[1,0.5]];portConstraint=eastwest;top=0;left=0;right=0;bottom=0;" parent="0l41ODt3sagTzn-8cAt7-6" vertex="1">
          <mxGeometry y="60" width="220" height="30" as="geometry" />
        </mxCell>
        <mxCell id="0l41ODt3sagTzn-8cAt7-11" value="" style="shape=partialRectangle;overflow=hidden;connectable=0;fillColor=none;top=0;left=0;bottom=0;right=0;" parent="0l41ODt3sagTzn-8cAt7-10" vertex="1">
          <mxGeometry width="30" height="30" as="geometry">
            <mxRectangle width="30" height="30" as="alternateBounds" />
          </mxGeometry>
        </mxCell>
        <mxCell id="0l41ODt3sagTzn-8cAt7-12" value="id_broker" style="shape=partialRectangle;overflow=hidden;connectable=0;fillColor=none;top=0;left=0;bottom=0;right=0;align=left;spacingLeft=6;" parent="0l41ODt3sagTzn-8cAt7-10" vertex="1">
          <mxGeometry x="30" width="190" height="30" as="geometry">
            <mxRectangle width="190" height="30" as="alternateBounds" />
          </mxGeometry>
        </mxCell>
        <mxCell id="0l41ODt3sagTzn-8cAt7-13" value="" style="shape=partialRectangle;collapsible=0;dropTarget=0;pointerEvents=0;fillColor=none;points=[[0,0.5],[1,0.5]];portConstraint=eastwest;top=0;left=0;right=0;bottom=0;" parent="0l41ODt3sagTzn-8cAt7-6" vertex="1">
          <mxGeometry y="90" width="220" height="65" as="geometry" />
        </mxCell>
        <mxCell id="0l41ODt3sagTzn-8cAt7-14" value="" style="shape=partialRectangle;overflow=hidden;connectable=0;fillColor=none;top=0;left=0;bottom=0;right=0;" parent="0l41ODt3sagTzn-8cAt7-13" vertex="1">
          <mxGeometry width="30" height="65" as="geometry">
            <mxRectangle width="30" height="65" as="alternateBounds" />
          </mxGeometry>
        </mxCell>
        <mxCell id="0l41ODt3sagTzn-8cAt7-15" value="nume&#xa;prenume&#xa;CNP&#xa;" style="shape=partialRectangle;overflow=hidden;connectable=0;fillColor=none;top=0;left=0;bottom=0;right=0;align=left;spacingLeft=6;" parent="0l41ODt3sagTzn-8cAt7-13" vertex="1">
          <mxGeometry x="30" width="190" height="65" as="geometry">
            <mxRectangle width="190" height="65" as="alternateBounds" />
          </mxGeometry>
        </mxCell>
        <mxCell id="0l41ODt3sagTzn-8cAt7-16" value="PORTOFOLIU" style="shape=table;startSize=30;container=1;collapsible=1;childLayout=tableLayout;fixedRows=1;rowLines=0;fontStyle=1;align=center;resizeLast=1;" parent="1" vertex="1">
          <mxGeometry x="430" y="290" width="200" height="130" as="geometry" />
        </mxCell>
        <mxCell id="0l41ODt3sagTzn-8cAt7-17" value="" style="shape=partialRectangle;collapsible=0;dropTarget=0;pointerEvents=0;fillColor=none;points=[[0,0.5],[1,0.5]];portConstraint=eastwest;top=0;left=0;right=0;bottom=1;" parent="0l41ODt3sagTzn-8cAt7-16" vertex="1">
          <mxGeometry y="30" width="200" height="30" as="geometry" />
        </mxCell>
        <mxCell id="0l41ODt3sagTzn-8cAt7-18" value="PK" style="shape=partialRectangle;overflow=hidden;connectable=0;fillColor=none;top=0;left=0;bottom=0;right=0;fontStyle=1;" parent="0l41ODt3sagTzn-8cAt7-17" vertex="1">
          <mxGeometry width="30" height="30" as="geometry">
            <mxRectangle width="30" height="30" as="alternateBounds" />
          </mxGeometry>
        </mxCell>
        <mxCell id="0l41ODt3sagTzn-8cAt7-19" value="id_portofoliu" style="shape=partialRectangle;overflow=hidden;connectable=0;fillColor=none;top=0;left=0;bottom=0;right=0;align=left;spacingLeft=6;fontStyle=5;" parent="0l41ODt3sagTzn-8cAt7-17" vertex="1">
          <mxGeometry x="30" width="170" height="30" as="geometry">
            <mxRectangle width="170" height="30" as="alternateBounds" />
          </mxGeometry>
        </mxCell>
        <mxCell id="0l41ODt3sagTzn-8cAt7-20" value="" style="shape=partialRectangle;collapsible=0;dropTarget=0;pointerEvents=0;fillColor=none;points=[[0,0.5],[1,0.5]];portConstraint=eastwest;top=0;left=0;right=0;bottom=0;" parent="0l41ODt3sagTzn-8cAt7-16" vertex="1">
          <mxGeometry y="60" width="200" height="30" as="geometry" />
        </mxCell>
        <mxCell id="0l41ODt3sagTzn-8cAt7-21" value="" style="shape=partialRectangle;overflow=hidden;connectable=0;fillColor=none;top=0;left=0;bottom=0;right=0;" parent="0l41ODt3sagTzn-8cAt7-20" vertex="1">
          <mxGeometry width="30" height="30" as="geometry">
            <mxRectangle width="30" height="30" as="alternateBounds" />
          </mxGeometry>
        </mxCell>
        <mxCell id="0l41ODt3sagTzn-8cAt7-22" value="id_client" style="shape=partialRectangle;overflow=hidden;connectable=0;fillColor=none;top=0;left=0;bottom=0;right=0;align=left;spacingLeft=6;" parent="0l41ODt3sagTzn-8cAt7-20" vertex="1">
          <mxGeometry x="30" width="170" height="30" as="geometry">
            <mxRectangle width="170" height="30" as="alternateBounds" />
          </mxGeometry>
        </mxCell>
        <mxCell id="0l41ODt3sagTzn-8cAt7-23" value="" style="shape=partialRectangle;collapsible=0;dropTarget=0;pointerEvents=0;fillColor=none;points=[[0,0.5],[1,0.5]];portConstraint=eastwest;top=0;left=0;right=0;bottom=0;" parent="0l41ODt3sagTzn-8cAt7-16" vertex="1">
          <mxGeometry y="90" width="200" height="30" as="geometry" />
        </mxCell>
        <mxCell id="0l41ODt3sagTzn-8cAt7-24" value="" style="shape=partialRectangle;overflow=hidden;connectable=0;fillColor=none;top=0;left=0;bottom=0;right=0;" parent="0l41ODt3sagTzn-8cAt7-23" vertex="1">
          <mxGeometry width="30" height="30" as="geometry">
            <mxRectangle width="30" height="30" as="alternateBounds" />
          </mxGeometry>
        </mxCell>
        <mxCell id="0l41ODt3sagTzn-8cAt7-25" value="balanță" style="shape=partialRectangle;overflow=hidden;connectable=0;fillColor=none;top=0;left=0;bottom=0;right=0;align=left;spacingLeft=6;" parent="0l41ODt3sagTzn-8cAt7-23" vertex="1">
          <mxGeometry x="30" width="170" height="30" as="geometry">
            <mxRectangle width="170" height="30" as="alternateBounds" />
          </mxGeometry>
        </mxCell>
        <mxCell id="0l41ODt3sagTzn-8cAt7-26" value="ORDIN" style="shape=table;startSize=30;container=1;collapsible=1;childLayout=tableLayout;fixedRows=1;rowLines=0;fontStyle=1;align=center;resizeLast=1;" parent="1" vertex="1">
          <mxGeometry x="440" y="495" width="180" height="160" as="geometry" />
        </mxCell>
        <mxCell id="0l41ODt3sagTzn-8cAt7-27" value="" style="shape=partialRectangle;collapsible=0;dropTarget=0;pointerEvents=0;fillColor=none;points=[[0,0.5],[1,0.5]];portConstraint=eastwest;top=0;left=0;right=0;bottom=1;" parent="0l41ODt3sagTzn-8cAt7-26" vertex="1">
          <mxGeometry y="30" width="180" height="30" as="geometry" />
        </mxCell>
        <mxCell id="0l41ODt3sagTzn-8cAt7-28" value="PK" style="shape=partialRectangle;overflow=hidden;connectable=0;fillColor=none;top=0;left=0;bottom=0;right=0;fontStyle=1;" parent="0l41ODt3sagTzn-8cAt7-27" vertex="1">
          <mxGeometry width="30" height="30" as="geometry">
            <mxRectangle width="30" height="30" as="alternateBounds" />
          </mxGeometry>
        </mxCell>
        <mxCell id="0l41ODt3sagTzn-8cAt7-29" value="id_ordin" style="shape=partialRectangle;overflow=hidden;connectable=0;fillColor=none;top=0;left=0;bottom=0;right=0;align=left;spacingLeft=6;fontStyle=5;" parent="0l41ODt3sagTzn-8cAt7-27" vertex="1">
          <mxGeometry x="30" width="150" height="30" as="geometry">
            <mxRectangle width="150" height="30" as="alternateBounds" />
          </mxGeometry>
        </mxCell>
        <mxCell id="0l41ODt3sagTzn-8cAt7-30" value="" style="shape=partialRectangle;collapsible=0;dropTarget=0;pointerEvents=0;fillColor=none;points=[[0,0.5],[1,0.5]];portConstraint=eastwest;top=0;left=0;right=0;bottom=0;" parent="0l41ODt3sagTzn-8cAt7-26" vertex="1">
          <mxGeometry y="60" width="180" height="25" as="geometry" />
        </mxCell>
        <mxCell id="0l41ODt3sagTzn-8cAt7-31" value="" style="shape=partialRectangle;overflow=hidden;connectable=0;fillColor=none;top=0;left=0;bottom=0;right=0;" parent="0l41ODt3sagTzn-8cAt7-30" vertex="1">
          <mxGeometry width="30" height="25" as="geometry">
            <mxRectangle width="30" height="25" as="alternateBounds" />
          </mxGeometry>
        </mxCell>
        <mxCell id="0l41ODt3sagTzn-8cAt7-32" value="id_portofel" style="shape=partialRectangle;overflow=hidden;connectable=0;fillColor=none;top=0;left=0;bottom=0;right=0;align=left;spacingLeft=6;" parent="0l41ODt3sagTzn-8cAt7-30" vertex="1">
          <mxGeometry x="30" width="150" height="25" as="geometry">
            <mxRectangle width="150" height="25" as="alternateBounds" />
          </mxGeometry>
        </mxCell>
        <mxCell id="0l41ODt3sagTzn-8cAt7-33" value="" style="shape=partialRectangle;collapsible=0;dropTarget=0;pointerEvents=0;fillColor=none;points=[[0,0.5],[1,0.5]];portConstraint=eastwest;top=0;left=0;right=0;bottom=0;" parent="0l41ODt3sagTzn-8cAt7-26" vertex="1">
          <mxGeometry y="85" width="180" height="70" as="geometry" />
        </mxCell>
        <mxCell id="0l41ODt3sagTzn-8cAt7-34" value="" style="shape=partialRectangle;overflow=hidden;connectable=0;fillColor=none;top=0;left=0;bottom=0;right=0;" parent="0l41ODt3sagTzn-8cAt7-33" vertex="1">
          <mxGeometry width="30" height="70" as="geometry">
            <mxRectangle width="30" height="70" as="alternateBounds" />
          </mxGeometry>
        </mxCell>
        <mxCell id="0l41ODt3sagTzn-8cAt7-35" value="tip&#xa;număr&#xa;preț_unitate&#xa;stare" style="shape=partialRectangle;overflow=hidden;connectable=0;fillColor=none;top=0;left=0;bottom=0;right=0;align=left;spacingLeft=6;" parent="0l41ODt3sagTzn-8cAt7-33" vertex="1">
          <mxGeometry x="30" width="150" height="70" as="geometry">
            <mxRectangle width="150" height="70" as="alternateBounds" />
          </mxGeometry>
        </mxCell>
        <mxCell id="IBkrhntbeBRxh-45TwVK-1" value="OBLIGAȚIUNE" style="shape=table;startSize=30;container=1;collapsible=1;childLayout=tableLayout;fixedRows=1;rowLines=0;fontStyle=1;align=center;resizeLast=1;" parent="1" vertex="1">
          <mxGeometry x="382.5" y="1200" width="170" height="140" as="geometry" />
        </mxCell>
        <mxCell id="IBkrhntbeBRxh-45TwVK-2" value="" style="shape=partialRectangle;collapsible=0;dropTarget=0;pointerEvents=0;fillColor=none;points=[[0,0.5],[1,0.5]];portConstraint=eastwest;top=0;left=0;right=0;bottom=1;" parent="IBkrhntbeBRxh-45TwVK-1" vertex="1">
          <mxGeometry y="30" width="170" height="30" as="geometry" />
        </mxCell>
        <mxCell id="IBkrhntbeBRxh-45TwVK-3" value="PK" style="shape=partialRectangle;overflow=hidden;connectable=0;fillColor=none;top=0;left=0;bottom=0;right=0;fontStyle=1;" parent="IBkrhntbeBRxh-45TwVK-2" vertex="1">
          <mxGeometry width="30" height="30" as="geometry">
            <mxRectangle width="30" height="30" as="alternateBounds" />
          </mxGeometry>
        </mxCell>
        <mxCell id="IBkrhntbeBRxh-45TwVK-4" value="id_obligațiune" style="shape=partialRectangle;overflow=hidden;connectable=0;fillColor=none;top=0;left=0;bottom=0;right=0;align=left;spacingLeft=6;fontStyle=5;" parent="IBkrhntbeBRxh-45TwVK-2" vertex="1">
          <mxGeometry x="30" width="140" height="30" as="geometry">
            <mxRectangle width="140" height="30" as="alternateBounds" />
          </mxGeometry>
        </mxCell>
        <mxCell id="IBkrhntbeBRxh-45TwVK-5" value="" style="shape=partialRectangle;collapsible=0;dropTarget=0;pointerEvents=0;fillColor=none;points=[[0,0.5],[1,0.5]];portConstraint=eastwest;top=0;left=0;right=0;bottom=0;" parent="IBkrhntbeBRxh-45TwVK-1" vertex="1">
          <mxGeometry y="60" width="170" height="30" as="geometry" />
        </mxCell>
        <mxCell id="IBkrhntbeBRxh-45TwVK-6" value="" style="shape=partialRectangle;overflow=hidden;connectable=0;fillColor=none;top=0;left=0;bottom=0;right=0;" parent="IBkrhntbeBRxh-45TwVK-5" vertex="1">
          <mxGeometry width="30" height="30" as="geometry">
            <mxRectangle width="30" height="30" as="alternateBounds" />
          </mxGeometry>
        </mxCell>
        <mxCell id="IBkrhntbeBRxh-45TwVK-7" value="id_ordin" style="shape=partialRectangle;overflow=hidden;connectable=0;fillColor=none;top=0;left=0;bottom=0;right=0;align=left;spacingLeft=6;" parent="IBkrhntbeBRxh-45TwVK-5" vertex="1">
          <mxGeometry x="30" width="140" height="30" as="geometry">
            <mxRectangle width="140" height="30" as="alternateBounds" />
          </mxGeometry>
        </mxCell>
        <mxCell id="IBkrhntbeBRxh-45TwVK-8" value="" style="shape=partialRectangle;collapsible=0;dropTarget=0;pointerEvents=0;fillColor=none;points=[[0,0.5],[1,0.5]];portConstraint=eastwest;top=0;left=0;right=0;bottom=0;" parent="IBkrhntbeBRxh-45TwVK-1" vertex="1">
          <mxGeometry y="90" width="170" height="50" as="geometry" />
        </mxCell>
        <mxCell id="IBkrhntbeBRxh-45TwVK-9" value="" style="shape=partialRectangle;overflow=hidden;connectable=0;fillColor=none;top=0;left=0;bottom=0;right=0;" parent="IBkrhntbeBRxh-45TwVK-8" vertex="1">
          <mxGeometry width="30" height="50" as="geometry">
            <mxRectangle width="30" height="50" as="alternateBounds" />
          </mxGeometry>
        </mxCell>
        <mxCell id="IBkrhntbeBRxh-45TwVK-10" value="emitent&#xa;valoare&#xa;dată_scadentă" style="shape=partialRectangle;overflow=hidden;connectable=0;fillColor=none;top=0;left=0;bottom=0;right=0;align=left;spacingLeft=6;" parent="IBkrhntbeBRxh-45TwVK-8" vertex="1">
          <mxGeometry x="30" width="140" height="50" as="geometry">
            <mxRectangle width="140" height="50" as="alternateBounds" />
          </mxGeometry>
        </mxCell>
        <mxCell id="IBkrhntbeBRxh-45TwVK-11" value="ACȚIUNE" style="shape=table;startSize=30;container=1;collapsible=1;childLayout=tableLayout;fixedRows=1;rowLines=0;fontStyle=1;align=center;resizeLast=1;" parent="1" vertex="1">
          <mxGeometry x="415" y="1070" width="175" height="130" as="geometry" />
        </mxCell>
        <mxCell id="IBkrhntbeBRxh-45TwVK-12" value="" style="shape=partialRectangle;collapsible=0;dropTarget=0;pointerEvents=0;fillColor=none;points=[[0,0.5],[1,0.5]];portConstraint=eastwest;top=0;left=0;right=0;bottom=1;" parent="IBkrhntbeBRxh-45TwVK-11" vertex="1">
          <mxGeometry y="30" width="175" height="30" as="geometry" />
        </mxCell>
        <mxCell id="IBkrhntbeBRxh-45TwVK-13" value="PK" style="shape=partialRectangle;overflow=hidden;connectable=0;fillColor=none;top=0;left=0;bottom=0;right=0;fontStyle=1;" parent="IBkrhntbeBRxh-45TwVK-12" vertex="1">
          <mxGeometry width="30" height="30" as="geometry">
            <mxRectangle width="30" height="30" as="alternateBounds" />
          </mxGeometry>
        </mxCell>
        <mxCell id="IBkrhntbeBRxh-45TwVK-14" value="id_acțiune" style="shape=partialRectangle;overflow=hidden;connectable=0;fillColor=none;top=0;left=0;bottom=0;right=0;align=left;spacingLeft=6;fontStyle=5;" parent="IBkrhntbeBRxh-45TwVK-12" vertex="1">
          <mxGeometry x="30" width="145" height="30" as="geometry">
            <mxRectangle width="145" height="30" as="alternateBounds" />
          </mxGeometry>
        </mxCell>
        <mxCell id="IBkrhntbeBRxh-45TwVK-18" value="" style="shape=partialRectangle;collapsible=0;dropTarget=0;pointerEvents=0;fillColor=none;points=[[0,0.5],[1,0.5]];portConstraint=eastwest;top=0;left=0;right=0;bottom=0;" parent="IBkrhntbeBRxh-45TwVK-11" vertex="1">
          <mxGeometry y="60" width="175" height="30" as="geometry" />
        </mxCell>
        <mxCell id="IBkrhntbeBRxh-45TwVK-19" value="" style="shape=partialRectangle;overflow=hidden;connectable=0;fillColor=none;top=0;left=0;bottom=0;right=0;" parent="IBkrhntbeBRxh-45TwVK-18" vertex="1">
          <mxGeometry width="30" height="30" as="geometry">
            <mxRectangle width="30" height="30" as="alternateBounds" />
          </mxGeometry>
        </mxCell>
        <mxCell id="IBkrhntbeBRxh-45TwVK-20" value="id_ordin&#xa;id_companie" style="shape=partialRectangle;overflow=hidden;connectable=0;fillColor=none;top=0;left=0;bottom=0;right=0;align=left;spacingLeft=6;" parent="IBkrhntbeBRxh-45TwVK-18" vertex="1">
          <mxGeometry x="30" width="145" height="30" as="geometry">
            <mxRectangle width="145" height="30" as="alternateBounds" />
          </mxGeometry>
        </mxCell>
        <mxCell id="IBkrhntbeBRxh-45TwVK-21" value="ETF" style="shape=table;startSize=30;container=1;collapsible=1;childLayout=tableLayout;fixedRows=1;rowLines=0;fontStyle=1;align=center;resizeLast=1;" parent="1" vertex="1">
          <mxGeometry x="385" y="1350" width="175" height="130" as="geometry" />
        </mxCell>
        <mxCell id="IBkrhntbeBRxh-45TwVK-22" value="" style="shape=partialRectangle;collapsible=0;dropTarget=0;pointerEvents=0;fillColor=none;points=[[0,0.5],[1,0.5]];portConstraint=eastwest;top=0;left=0;right=0;bottom=1;" parent="IBkrhntbeBRxh-45TwVK-21" vertex="1">
          <mxGeometry y="30" width="175" height="30" as="geometry" />
        </mxCell>
        <mxCell id="IBkrhntbeBRxh-45TwVK-23" value="PK" style="shape=partialRectangle;overflow=hidden;connectable=0;fillColor=none;top=0;left=0;bottom=0;right=0;fontStyle=1;" parent="IBkrhntbeBRxh-45TwVK-22" vertex="1">
          <mxGeometry width="30" height="30" as="geometry">
            <mxRectangle width="30" height="30" as="alternateBounds" />
          </mxGeometry>
        </mxCell>
        <mxCell id="IBkrhntbeBRxh-45TwVK-24" value="id_etf" style="shape=partialRectangle;overflow=hidden;connectable=0;fillColor=none;top=0;left=0;bottom=0;right=0;align=left;spacingLeft=6;fontStyle=5;" parent="IBkrhntbeBRxh-45TwVK-22" vertex="1">
          <mxGeometry x="30" width="145" height="30" as="geometry">
            <mxRectangle width="145" height="30" as="alternateBounds" />
          </mxGeometry>
        </mxCell>
        <mxCell id="IBkrhntbeBRxh-45TwVK-25" value="" style="shape=partialRectangle;collapsible=0;dropTarget=0;pointerEvents=0;fillColor=none;points=[[0,0.5],[1,0.5]];portConstraint=eastwest;top=0;left=0;right=0;bottom=0;" parent="IBkrhntbeBRxh-45TwVK-21" vertex="1">
          <mxGeometry y="60" width="175" height="30" as="geometry" />
        </mxCell>
        <mxCell id="IBkrhntbeBRxh-45TwVK-26" value="" style="shape=partialRectangle;overflow=hidden;connectable=0;fillColor=none;top=0;left=0;bottom=0;right=0;" parent="IBkrhntbeBRxh-45TwVK-25" vertex="1">
          <mxGeometry width="30" height="30" as="geometry">
            <mxRectangle width="30" height="30" as="alternateBounds" />
          </mxGeometry>
        </mxCell>
        <mxCell id="IBkrhntbeBRxh-45TwVK-27" value="id_ordin" style="shape=partialRectangle;overflow=hidden;connectable=0;fillColor=none;top=0;left=0;bottom=0;right=0;align=left;spacingLeft=6;" parent="IBkrhntbeBRxh-45TwVK-25" vertex="1">
          <mxGeometry x="30" width="145" height="30" as="geometry">
            <mxRectangle width="145" height="30" as="alternateBounds" />
          </mxGeometry>
        </mxCell>
        <mxCell id="IBkrhntbeBRxh-45TwVK-28" value="" style="shape=partialRectangle;collapsible=0;dropTarget=0;pointerEvents=0;fillColor=none;points=[[0,0.5],[1,0.5]];portConstraint=eastwest;top=0;left=0;right=0;bottom=0;" parent="IBkrhntbeBRxh-45TwVK-21" vertex="1">
          <mxGeometry y="90" width="175" height="30" as="geometry" />
        </mxCell>
        <mxCell id="IBkrhntbeBRxh-45TwVK-29" value="" style="shape=partialRectangle;overflow=hidden;connectable=0;fillColor=none;top=0;left=0;bottom=0;right=0;" parent="IBkrhntbeBRxh-45TwVK-28" vertex="1">
          <mxGeometry width="30" height="30" as="geometry">
            <mxRectangle width="30" height="30" as="alternateBounds" />
          </mxGeometry>
        </mxCell>
        <mxCell id="IBkrhntbeBRxh-45TwVK-30" value="simbol&#xa;preț_curent" style="shape=partialRectangle;overflow=hidden;connectable=0;fillColor=none;top=0;left=0;bottom=0;right=0;align=left;spacingLeft=6;" parent="IBkrhntbeBRxh-45TwVK-28" vertex="1">
          <mxGeometry x="30" width="145" height="30" as="geometry">
            <mxRectangle width="145" height="30" as="alternateBounds" />
          </mxGeometry>
        </mxCell>
        <mxCell id="IBkrhntbeBRxh-45TwVK-31" value="DIVIDEND" style="shape=table;startSize=30;container=1;collapsible=1;childLayout=tableLayout;fixedRows=1;rowLines=0;fontStyle=1;align=center;resizeLast=1;" parent="1" vertex="1">
          <mxGeometry x="-140" y="790" width="180" height="130" as="geometry" />
        </mxCell>
        <mxCell id="IBkrhntbeBRxh-45TwVK-32" value="" style="shape=partialRectangle;collapsible=0;dropTarget=0;pointerEvents=0;fillColor=none;points=[[0,0.5],[1,0.5]];portConstraint=eastwest;top=0;left=0;right=0;bottom=1;" parent="IBkrhntbeBRxh-45TwVK-31" vertex="1">
          <mxGeometry y="30" width="180" height="30" as="geometry" />
        </mxCell>
        <mxCell id="IBkrhntbeBRxh-45TwVK-33" value="PK" style="shape=partialRectangle;overflow=hidden;connectable=0;fillColor=none;top=0;left=0;bottom=0;right=0;fontStyle=1;" parent="IBkrhntbeBRxh-45TwVK-32" vertex="1">
          <mxGeometry width="30" height="30" as="geometry">
            <mxRectangle width="30" height="30" as="alternateBounds" />
          </mxGeometry>
        </mxCell>
        <mxCell id="IBkrhntbeBRxh-45TwVK-34" value="id_dividend" style="shape=partialRectangle;overflow=hidden;connectable=0;fillColor=none;top=0;left=0;bottom=0;right=0;align=left;spacingLeft=6;fontStyle=5;" parent="IBkrhntbeBRxh-45TwVK-32" vertex="1">
          <mxGeometry x="30" width="150" height="30" as="geometry">
            <mxRectangle width="150" height="30" as="alternateBounds" />
          </mxGeometry>
        </mxCell>
        <mxCell id="IBkrhntbeBRxh-45TwVK-35" value="" style="shape=partialRectangle;collapsible=0;dropTarget=0;pointerEvents=0;fillColor=none;points=[[0,0.5],[1,0.5]];portConstraint=eastwest;top=0;left=0;right=0;bottom=0;" parent="IBkrhntbeBRxh-45TwVK-31" vertex="1">
          <mxGeometry y="60" width="180" height="30" as="geometry" />
        </mxCell>
        <mxCell id="IBkrhntbeBRxh-45TwVK-36" value="" style="shape=partialRectangle;overflow=hidden;connectable=0;fillColor=none;top=0;left=0;bottom=0;right=0;" parent="IBkrhntbeBRxh-45TwVK-35" vertex="1">
          <mxGeometry width="30" height="30" as="geometry">
            <mxRectangle width="30" height="30" as="alternateBounds" />
          </mxGeometry>
        </mxCell>
        <mxCell id="IBkrhntbeBRxh-45TwVK-37" value="id_companie" style="shape=partialRectangle;overflow=hidden;connectable=0;fillColor=none;top=0;left=0;bottom=0;right=0;align=left;spacingLeft=6;" parent="IBkrhntbeBRxh-45TwVK-35" vertex="1">
          <mxGeometry x="30" width="150" height="30" as="geometry">
            <mxRectangle width="150" height="30" as="alternateBounds" />
          </mxGeometry>
        </mxCell>
        <mxCell id="IBkrhntbeBRxh-45TwVK-38" value="" style="shape=partialRectangle;collapsible=0;dropTarget=0;pointerEvents=0;fillColor=none;points=[[0,0.5],[1,0.5]];portConstraint=eastwest;top=0;left=0;right=0;bottom=0;" parent="IBkrhntbeBRxh-45TwVK-31" vertex="1">
          <mxGeometry y="90" width="180" height="30" as="geometry" />
        </mxCell>
        <mxCell id="IBkrhntbeBRxh-45TwVK-39" value="" style="shape=partialRectangle;overflow=hidden;connectable=0;fillColor=none;top=0;left=0;bottom=0;right=0;" parent="IBkrhntbeBRxh-45TwVK-38" vertex="1">
          <mxGeometry width="30" height="30" as="geometry">
            <mxRectangle width="30" height="30" as="alternateBounds" />
          </mxGeometry>
        </mxCell>
        <mxCell id="IBkrhntbeBRxh-45TwVK-40" value="valoare&#xa;dată_plată" style="shape=partialRectangle;overflow=hidden;connectable=0;fillColor=none;top=0;left=0;bottom=0;right=0;align=left;spacingLeft=6;" parent="IBkrhntbeBRxh-45TwVK-38" vertex="1">
          <mxGeometry x="30" width="150" height="30" as="geometry">
            <mxRectangle width="150" height="30" as="alternateBounds" />
          </mxGeometry>
        </mxCell>
        <mxCell id="-VNbd0uvvO6OSstWt9tD-1" value="" style="endArrow=none;html=1;rounded=0;entryX=0;entryY=0.5;entryDx=0;entryDy=0;exitX=1;exitY=0.5;exitDx=0;exitDy=0;" parent="1" source="C-vyLk0tnHw3VtMMgP7b-24" target="0l41ODt3sagTzn-8cAt7-10" edge="1">
          <mxGeometry width="50" height="50" relative="1" as="geometry">
            <mxPoint x="210" y="400" as="sourcePoint" />
            <mxPoint x="260" y="350" as="targetPoint" />
          </mxGeometry>
        </mxCell>
        <mxCell id="-VNbd0uvvO6OSstWt9tD-2" value="1" style="text;html=1;align=center;verticalAlign=middle;resizable=0;points=[];autosize=1;strokeColor=none;fillColor=none;" parent="1" vertex="1">
          <mxGeometry x="265" y="68" width="30" height="30" as="geometry" />
        </mxCell>
        <mxCell id="-VNbd0uvvO6OSstWt9tD-3" value="are" style="text;html=1;align=center;verticalAlign=middle;resizable=0;points=[];autosize=1;strokeColor=none;fillColor=none;" parent="1" vertex="1">
          <mxGeometry x="320" y="68" width="40" height="30" as="geometry" />
        </mxCell>
        <mxCell id="-VNbd0uvvO6OSstWt9tD-4" value="M(1)" style="text;html=1;align=center;verticalAlign=middle;resizable=0;points=[];autosize=1;strokeColor=none;fillColor=none;" parent="1" vertex="1">
          <mxGeometry x="370" y="68" width="50" height="30" as="geometry" />
        </mxCell>
        <mxCell id="-VNbd0uvvO6OSstWt9tD-5" value="" style="endArrow=none;html=1;rounded=0;entryX=0.5;entryY=1;entryDx=0;entryDy=0;exitX=0.5;exitY=0;exitDx=0;exitDy=0;" parent="1" source="0l41ODt3sagTzn-8cAt7-16" target="0l41ODt3sagTzn-8cAt7-6" edge="1">
          <mxGeometry width="50" height="50" relative="1" as="geometry">
            <mxPoint x="420" y="320" as="sourcePoint" />
            <mxPoint x="470" y="270" as="targetPoint" />
          </mxGeometry>
        </mxCell>
        <mxCell id="-VNbd0uvvO6OSstWt9tD-6" value="1" style="text;html=1;align=center;verticalAlign=middle;resizable=0;points=[];autosize=1;strokeColor=none;fillColor=none;" parent="1" vertex="1">
          <mxGeometry x="530" y="180" width="30" height="30" as="geometry" />
        </mxCell>
        <mxCell id="-VNbd0uvvO6OSstWt9tD-7" value="deține" style="text;html=1;align=center;verticalAlign=middle;resizable=0;points=[];autosize=1;strokeColor=none;fillColor=none;" parent="1" vertex="1">
          <mxGeometry x="525" y="220" width="60" height="30" as="geometry" />
        </mxCell>
        <mxCell id="-VNbd0uvvO6OSstWt9tD-8" value="M(1)" style="text;html=1;align=center;verticalAlign=middle;resizable=0;points=[];autosize=1;strokeColor=none;fillColor=none;" parent="1" vertex="1">
          <mxGeometry x="530" y="260" width="50" height="30" as="geometry" />
        </mxCell>
        <mxCell id="-VNbd0uvvO6OSstWt9tD-9" value="1" style="text;html=1;align=center;verticalAlign=middle;resizable=0;points=[];autosize=1;strokeColor=none;fillColor=none;" parent="1" vertex="1">
          <mxGeometry x="525" y="420" width="30" height="30" as="geometry" />
        </mxCell>
        <mxCell id="-VNbd0uvvO6OSstWt9tD-10" value="M(0)" style="text;html=1;align=center;verticalAlign=middle;resizable=0;points=[];autosize=1;strokeColor=none;fillColor=none;" parent="1" vertex="1">
          <mxGeometry x="530" y="465" width="50" height="30" as="geometry" />
        </mxCell>
        <mxCell id="-VNbd0uvvO6OSstWt9tD-11" value="" style="endArrow=none;html=1;rounded=0;entryX=0.5;entryY=1;entryDx=0;entryDy=0;exitX=0.5;exitY=0;exitDx=0;exitDy=0;" parent="1" source="0l41ODt3sagTzn-8cAt7-26" target="0l41ODt3sagTzn-8cAt7-16" edge="1">
          <mxGeometry width="50" height="50" relative="1" as="geometry">
            <mxPoint x="420" y="510" as="sourcePoint" />
            <mxPoint x="470" y="460" as="targetPoint" />
          </mxGeometry>
        </mxCell>
        <mxCell id="-VNbd0uvvO6OSstWt9tD-12" value="conține" style="text;html=1;align=center;verticalAlign=middle;resizable=0;points=[];autosize=1;strokeColor=none;fillColor=none;" parent="1" vertex="1">
          <mxGeometry x="525" y="440" width="60" height="30" as="geometry" />
        </mxCell>
        <mxCell id="-VNbd0uvvO6OSstWt9tD-20" value="1" style="text;html=1;align=center;verticalAlign=middle;resizable=0;points=[];autosize=1;strokeColor=none;fillColor=none;" parent="1" vertex="1">
          <mxGeometry x="515" y="660" width="30" height="30" as="geometry" />
        </mxCell>
        <mxCell id="-VNbd0uvvO6OSstWt9tD-24" value="conține" style="text;html=1;align=center;verticalAlign=middle;resizable=0;points=[];autosize=1;strokeColor=none;fillColor=none;" parent="1" vertex="1">
          <mxGeometry x="500" y="720" width="60" height="30" as="geometry" />
        </mxCell>
        <mxCell id="-VNbd0uvvO6OSstWt9tD-34" value="COMPANIE" style="shape=table;startSize=30;container=1;collapsible=1;childLayout=tableLayout;fixedRows=1;rowLines=0;fontStyle=1;align=center;resizeLast=1;" parent="1" vertex="1">
          <mxGeometry x="-51" y="520" width="180" height="140" as="geometry" />
        </mxCell>
        <mxCell id="-VNbd0uvvO6OSstWt9tD-35" value="" style="shape=partialRectangle;collapsible=0;dropTarget=0;pointerEvents=0;fillColor=none;points=[[0,0.5],[1,0.5]];portConstraint=eastwest;top=0;left=0;right=0;bottom=1;" parent="-VNbd0uvvO6OSstWt9tD-34" vertex="1">
          <mxGeometry y="30" width="180" height="30" as="geometry" />
        </mxCell>
        <mxCell id="-VNbd0uvvO6OSstWt9tD-36" value="PK" style="shape=partialRectangle;overflow=hidden;connectable=0;fillColor=none;top=0;left=0;bottom=0;right=0;fontStyle=1;" parent="-VNbd0uvvO6OSstWt9tD-35" vertex="1">
          <mxGeometry width="30" height="30" as="geometry">
            <mxRectangle width="30" height="30" as="alternateBounds" />
          </mxGeometry>
        </mxCell>
        <mxCell id="-VNbd0uvvO6OSstWt9tD-37" value="id_companie" style="shape=partialRectangle;overflow=hidden;connectable=0;fillColor=none;top=0;left=0;bottom=0;right=0;align=left;spacingLeft=6;fontStyle=5;" parent="-VNbd0uvvO6OSstWt9tD-35" vertex="1">
          <mxGeometry x="30" width="150" height="30" as="geometry">
            <mxRectangle width="150" height="30" as="alternateBounds" />
          </mxGeometry>
        </mxCell>
        <mxCell id="-VNbd0uvvO6OSstWt9tD-41" value="" style="shape=partialRectangle;collapsible=0;dropTarget=0;pointerEvents=0;fillColor=none;points=[[0,0.5],[1,0.5]];portConstraint=eastwest;top=0;left=0;right=0;bottom=0;" parent="-VNbd0uvvO6OSstWt9tD-34" vertex="1">
          <mxGeometry y="60" width="180" height="60" as="geometry" />
        </mxCell>
        <mxCell id="-VNbd0uvvO6OSstWt9tD-42" value="" style="shape=partialRectangle;overflow=hidden;connectable=0;fillColor=none;top=0;left=0;bottom=0;right=0;" parent="-VNbd0uvvO6OSstWt9tD-41" vertex="1">
          <mxGeometry width="30" height="60" as="geometry">
            <mxRectangle width="30" height="60" as="alternateBounds" />
          </mxGeometry>
        </mxCell>
        <mxCell id="-VNbd0uvvO6OSstWt9tD-43" value="nume&#xa;simbol&#xa;capitalizare&#xa;sector" style="shape=partialRectangle;overflow=hidden;connectable=0;fillColor=none;top=0;left=0;bottom=0;right=0;align=left;spacingLeft=6;" parent="-VNbd0uvvO6OSstWt9tD-41" vertex="1">
          <mxGeometry x="30" width="150" height="60" as="geometry">
            <mxRectangle width="150" height="60" as="alternateBounds" />
          </mxGeometry>
        </mxCell>
        <mxCell id="-VNbd0uvvO6OSstWt9tD-38" value="" style="shape=partialRectangle;collapsible=0;dropTarget=0;pointerEvents=0;fillColor=none;points=[[0,0.5],[1,0.5]];portConstraint=eastwest;top=0;left=0;right=0;bottom=0;" parent="-VNbd0uvvO6OSstWt9tD-34" vertex="1">
          <mxGeometry y="120" width="180" height="20" as="geometry" />
        </mxCell>
        <mxCell id="-VNbd0uvvO6OSstWt9tD-39" value="" style="shape=partialRectangle;overflow=hidden;connectable=0;fillColor=none;top=0;left=0;bottom=0;right=0;" parent="-VNbd0uvvO6OSstWt9tD-38" vertex="1">
          <mxGeometry width="30" height="20" as="geometry">
            <mxRectangle width="30" height="20" as="alternateBounds" />
          </mxGeometry>
        </mxCell>
        <mxCell id="-VNbd0uvvO6OSstWt9tD-40" value="" style="shape=partialRectangle;overflow=hidden;connectable=0;fillColor=none;top=0;left=0;bottom=0;right=0;align=left;spacingLeft=6;" parent="-VNbd0uvvO6OSstWt9tD-38" vertex="1">
          <mxGeometry x="30" width="150" height="20" as="geometry">
            <mxRectangle width="150" height="20" as="alternateBounds" />
          </mxGeometry>
        </mxCell>
        <mxCell id="-VNbd0uvvO6OSstWt9tD-45" value="1" style="text;html=1;align=center;verticalAlign=middle;resizable=0;points=[];autosize=1;strokeColor=none;fillColor=none;" parent="1" vertex="1">
          <mxGeometry x="90" y="680" width="30" height="30" as="geometry" />
        </mxCell>
        <mxCell id="-VNbd0uvvO6OSstWt9tD-47" value="emite" style="text;html=1;align=center;verticalAlign=middle;resizable=0;points=[];autosize=1;strokeColor=none;fillColor=none;" parent="1" vertex="1">
          <mxGeometry x="150" y="790" width="50" height="30" as="geometry" />
        </mxCell>
        <mxCell id="-VNbd0uvvO6OSstWt9tD-48" value="oferă" style="text;html=1;align=center;verticalAlign=middle;resizable=0;points=[];autosize=1;strokeColor=none;fillColor=none;" parent="1" vertex="1">
          <mxGeometry x="-50" y="710" width="50" height="30" as="geometry" />
        </mxCell>
        <mxCell id="-VNbd0uvvO6OSstWt9tD-49" value="" style="endArrow=none;html=1;rounded=0;entryX=0.5;entryY=1;entryDx=0;entryDy=0;exitX=0.5;exitY=0;exitDx=0;exitDy=0;" parent="1" source="IBkrhntbeBRxh-45TwVK-31" target="-VNbd0uvvO6OSstWt9tD-34" edge="1">
          <mxGeometry width="50" height="50" relative="1" as="geometry">
            <mxPoint x="20" y="760" as="sourcePoint" />
            <mxPoint x="70" y="710" as="targetPoint" />
          </mxGeometry>
        </mxCell>
        <mxCell id="-VNbd0uvvO6OSstWt9tD-50" value="1" style="text;html=1;align=center;verticalAlign=middle;resizable=0;points=[];autosize=1;strokeColor=none;fillColor=none;" parent="1" vertex="1">
          <mxGeometry y="660" width="30" height="30" as="geometry" />
        </mxCell>
        <mxCell id="-VNbd0uvvO6OSstWt9tD-51" value="M(0)" style="text;html=1;align=center;verticalAlign=middle;resizable=0;points=[];autosize=1;strokeColor=none;fillColor=none;" parent="1" vertex="1">
          <mxGeometry x="-80" y="760" width="50" height="30" as="geometry" />
        </mxCell>
        <mxCell id="-VNbd0uvvO6OSstWt9tD-53" value="" style="endArrow=none;html=1;rounded=0;entryX=0;entryY=0.5;entryDx=0;entryDy=0;exitX=1;exitY=0.5;exitDx=0;exitDy=0;" parent="1" source="-VNbd0uvvO6OSstWt9tD-57" target="0l41ODt3sagTzn-8cAt7-20" edge="1">
          <mxGeometry width="50" height="50" relative="1" as="geometry">
            <mxPoint x="290" y="370" as="sourcePoint" />
            <mxPoint x="345" y="520" as="targetPoint" />
          </mxGeometry>
        </mxCell>
        <mxCell id="-VNbd0uvvO6OSstWt9tD-55" value="" style="endArrow=none;html=1;rounded=0;entryX=0;entryY=1;entryDx=0;entryDy=0;exitX=1;exitY=0.5;exitDx=0;exitDy=0;" parent="1" source="-VNbd0uvvO6OSstWt9tD-57" target="0l41ODt3sagTzn-8cAt7-6" edge="1">
          <mxGeometry width="50" height="50" relative="1" as="geometry">
            <mxPoint x="300" y="370" as="sourcePoint" />
            <mxPoint x="390" y="240" as="targetPoint" />
          </mxGeometry>
        </mxCell>
        <mxCell id="-VNbd0uvvO6OSstWt9tD-57" value="&lt;b&gt;DEȚINE&lt;/b&gt;" style="rhombus;whiteSpace=wrap;html=1;" parent="1" vertex="1">
          <mxGeometry x="205" y="330" width="80" height="80" as="geometry" />
        </mxCell>
        <mxCell id="-VNbd0uvvO6OSstWt9tD-59" value="deține" style="text;html=1;align=center;verticalAlign=middle;resizable=0;points=[];autosize=1;strokeColor=none;fillColor=none;" parent="1" vertex="1">
          <mxGeometry x="285" y="260" width="60" height="30" as="geometry" />
        </mxCell>
        <mxCell id="-VNbd0uvvO6OSstWt9tD-61" value="are" style="text;html=1;align=center;verticalAlign=middle;resizable=0;points=[];autosize=1;strokeColor=none;fillColor=none;" parent="1" vertex="1">
          <mxGeometry x="330" y="680" width="40" height="30" as="geometry" />
        </mxCell>
        <mxCell id="-VNbd0uvvO6OSstWt9tD-62" value="conține" style="text;html=1;align=center;verticalAlign=middle;resizable=0;points=[];autosize=1;strokeColor=none;fillColor=none;" parent="1" vertex="1">
          <mxGeometry x="335" y="340" width="60" height="30" as="geometry" />
        </mxCell>
        <mxCell id="OoRFqI8MeztcHo7091h7-1" value="ACȚIONAR" style="shape=table;startSize=30;container=1;collapsible=1;childLayout=tableLayout;fixedRows=1;rowLines=0;fontStyle=1;align=center;resizeLast=1;" parent="1" vertex="1">
          <mxGeometry x="-674" y="520" width="250" height="140" as="geometry" />
        </mxCell>
        <mxCell id="OoRFqI8MeztcHo7091h7-2" value="" style="shape=partialRectangle;collapsible=0;dropTarget=0;pointerEvents=0;fillColor=none;points=[[0,0.5],[1,0.5]];portConstraint=eastwest;top=0;left=0;right=0;bottom=1;" parent="OoRFqI8MeztcHo7091h7-1" vertex="1">
          <mxGeometry y="30" width="250" height="30" as="geometry" />
        </mxCell>
        <mxCell id="OoRFqI8MeztcHo7091h7-3" value="PK" style="shape=partialRectangle;overflow=hidden;connectable=0;fillColor=none;top=0;left=0;bottom=0;right=0;fontStyle=1;" parent="OoRFqI8MeztcHo7091h7-2" vertex="1">
          <mxGeometry width="30" height="30" as="geometry">
            <mxRectangle width="30" height="30" as="alternateBounds" />
          </mxGeometry>
        </mxCell>
        <mxCell id="OoRFqI8MeztcHo7091h7-4" value="id_acționar" style="shape=partialRectangle;overflow=hidden;connectable=0;fillColor=none;top=0;left=0;bottom=0;right=0;align=left;spacingLeft=6;fontStyle=5;" parent="OoRFqI8MeztcHo7091h7-2" vertex="1">
          <mxGeometry x="30" width="220" height="30" as="geometry">
            <mxRectangle width="220" height="30" as="alternateBounds" />
          </mxGeometry>
        </mxCell>
        <mxCell id="OoRFqI8MeztcHo7091h7-5" value="" style="shape=partialRectangle;collapsible=0;dropTarget=0;pointerEvents=0;fillColor=none;points=[[0,0.5],[1,0.5]];portConstraint=eastwest;top=0;left=0;right=0;bottom=0;" parent="OoRFqI8MeztcHo7091h7-1" vertex="1">
          <mxGeometry y="60" width="250" height="20" as="geometry" />
        </mxCell>
        <mxCell id="OoRFqI8MeztcHo7091h7-6" value="" style="shape=partialRectangle;overflow=hidden;connectable=0;fillColor=none;top=0;left=0;bottom=0;right=0;" parent="OoRFqI8MeztcHo7091h7-5" vertex="1">
          <mxGeometry width="30" height="20" as="geometry">
            <mxRectangle width="30" height="20" as="alternateBounds" />
          </mxGeometry>
        </mxCell>
        <mxCell id="OoRFqI8MeztcHo7091h7-7" value="" style="shape=partialRectangle;overflow=hidden;connectable=0;fillColor=none;top=0;left=0;bottom=0;right=0;align=left;spacingLeft=6;" parent="OoRFqI8MeztcHo7091h7-5" vertex="1">
          <mxGeometry x="30" width="220" height="20" as="geometry">
            <mxRectangle width="220" height="20" as="alternateBounds" />
          </mxGeometry>
        </mxCell>
        <mxCell id="OoRFqI8MeztcHo7091h7-8" value="" style="shape=partialRectangle;collapsible=0;dropTarget=0;pointerEvents=0;fillColor=none;points=[[0,0.5],[1,0.5]];portConstraint=eastwest;top=0;left=0;right=0;bottom=0;" parent="OoRFqI8MeztcHo7091h7-1" vertex="1">
          <mxGeometry y="80" width="250" height="60" as="geometry" />
        </mxCell>
        <mxCell id="OoRFqI8MeztcHo7091h7-9" value="" style="shape=partialRectangle;overflow=hidden;connectable=0;fillColor=none;top=0;left=0;bottom=0;right=0;" parent="OoRFqI8MeztcHo7091h7-8" vertex="1">
          <mxGeometry width="30" height="60" as="geometry">
            <mxRectangle width="30" height="60" as="alternateBounds" />
          </mxGeometry>
        </mxCell>
        <mxCell id="OoRFqI8MeztcHo7091h7-10" value="nume&#xa;adresă&#xa;tip_acționar&#xa;" style="shape=partialRectangle;overflow=hidden;connectable=0;fillColor=none;top=0;left=0;bottom=0;right=0;align=left;spacingLeft=6;" parent="OoRFqI8MeztcHo7091h7-8" vertex="1">
          <mxGeometry x="30" width="220" height="60" as="geometry">
            <mxRectangle width="220" height="60" as="alternateBounds" />
          </mxGeometry>
        </mxCell>
        <mxCell id="OoRFqI8MeztcHo7091h7-12" value="" style="endArrow=none;html=1;rounded=0;entryX=0;entryY=0.5;entryDx=0;entryDy=0;exitX=1;exitY=0.113;exitDx=0;exitDy=0;exitPerimeter=0;" parent="1" source="OoRFqI8MeztcHo7091h7-8" target="-VNbd0uvvO6OSstWt9tD-41" edge="1">
          <mxGeometry width="50" height="50" relative="1" as="geometry">
            <mxPoint x="-180" y="565" as="sourcePoint" />
            <mxPoint x="-50" y="440" as="targetPoint" />
          </mxGeometry>
        </mxCell>
        <mxCell id="_Jgw_lSQmw2zCg625oAK-1" value="id_detine&lt;br&gt;id_client&lt;br&gt;id_portofoliu&lt;br&gt;id_actiune&lt;br&gt;data_achizitie" style="text;html=1;align=center;verticalAlign=middle;resizable=0;points=[];autosize=1;strokeColor=none;fillColor=none;" parent="1" vertex="1">
          <mxGeometry x="160" y="390" width="100" height="90" as="geometry" />
        </mxCell>
        <mxCell id="hiu5A2i0qPZkjxsGXid5-1" value="&lt;h6&gt;&lt;font face=&quot;Helvetica&quot;&gt;pret_curent&lt;/font&gt;&lt;/h6&gt;" style="text;html=1;align=center;verticalAlign=middle;resizable=0;points=[];autosize=1;strokeColor=none;fillColor=none;fontSize=20;fontFamily=Architects Daughter;" parent="1" vertex="1">
          <mxGeometry x="437.5" y="1120" width="100" height="90" as="geometry" />
        </mxCell>
        <mxCell id="hiu5A2i0qPZkjxsGXid5-2" value="" style="verticalLabelPosition=bottom;verticalAlign=top;html=1;shape=mxgraph.basic.rect;fillColor2=none;strokeWidth=17;size=20;indent=5;sketch=1;hachureGap=4;jiggle=2;curveFitting=1;fontFamily=Architects Daughter;fontSource=https%3A%2F%2Ffonts.googleapis.com%2Fcss%3Ffamily%3DArchitects%2BDaughter;fontSize=20;strokeColor=#6c8ebf;opacity=20;fillColor=#dae8fc;perimeterSpacing=2;" parent="1" vertex="1">
          <mxGeometry x="210" y="800" width="400" height="680" as="geometry" />
        </mxCell>
        <mxCell id="hiu5A2i0qPZkjxsGXid5-4" value="&lt;font face=&quot;Helvetica&quot;&gt;ORDIN&lt;/font&gt;" style="text;html=1;align=center;verticalAlign=middle;resizable=0;points=[];autosize=1;strokeColor=none;fillColor=none;fontSize=20;fontFamily=Architects Daughter;" parent="1" vertex="1">
          <mxGeometry x="462.5" y="835" width="90" height="40" as="geometry" />
        </mxCell>
        <mxCell id="hiu5A2i0qPZkjxsGXid5-5" value="&lt;p style=&quot;font-size: 15px;&quot;&gt;&lt;font style=&quot;font-size: 15px;&quot; face=&quot;Helvetica&quot;&gt;id_ordin#&lt;br&gt;id_portofel&lt;br&gt;tip&lt;br&gt;numar&lt;br&gt;pret_unitate&lt;br&gt;stare&lt;/font&gt;&lt;/p&gt;" style="text;html=1;align=center;verticalAlign=middle;resizable=0;points=[];autosize=1;strokeColor=none;fillColor=none;fontSize=20;fontFamily=Architects Daughter;" parent="1" vertex="1">
          <mxGeometry x="470" y="875" width="100" height="160" as="geometry" />
        </mxCell>
        <mxCell id="hiu5A2i0qPZkjxsGXid5-6" value="" style="endArrow=none;html=1;rounded=0;sketch=1;hachureGap=4;jiggle=2;curveFitting=1;fontFamily=Architects Daughter;fontSource=https%3A%2F%2Ffonts.googleapis.com%2Fcss%3Ffamily%3DArchitects%2BDaughter;fontSize=16;entryX=0.344;entryY=-0.111;entryDx=0;entryDy=0;entryPerimeter=0;" parent="1" target="-VNbd0uvvO6OSstWt9tD-20" edge="1">
          <mxGeometry width="50" height="50" relative="1" as="geometry">
            <mxPoint x="465" y="800" as="sourcePoint" />
            <mxPoint x="470" y="690" as="targetPoint" />
          </mxGeometry>
        </mxCell>
        <mxCell id="hiu5A2i0qPZkjxsGXid5-7" value="&lt;font face=&quot;Helvetica&quot;&gt;M(1)&lt;/font&gt;" style="text;html=1;align=center;verticalAlign=middle;resizable=0;points=[];autosize=1;strokeColor=none;fillColor=none;fontSize=20;fontFamily=Architects Daughter;" parent="1" vertex="1">
          <mxGeometry x="477.5" y="770" width="60" height="40" as="geometry" />
        </mxCell>
        <mxCell id="hiu5A2i0qPZkjxsGXid5-8" value="" style="endArrow=none;html=1;rounded=0;sketch=1;hachureGap=4;jiggle=2;curveFitting=1;fontFamily=Architects Daughter;fontSource=https%3A%2F%2Ffonts.googleapis.com%2Fcss%3Ffamily%3DArchitects%2BDaughter;fontSize=16;exitX=0.887;exitY=1.2;exitDx=0;exitDy=0;exitPerimeter=0;entryX=-0.003;entryY=-0.001;entryDx=0;entryDy=0;entryPerimeter=0;" parent="1" source="-VNbd0uvvO6OSstWt9tD-38" target="hiu5A2i0qPZkjxsGXid5-2" edge="1">
          <mxGeometry width="50" height="50" relative="1" as="geometry">
            <mxPoint x="170" y="660" as="sourcePoint" />
            <mxPoint x="360" y="770" as="targetPoint" />
            <Array as="points">
              <mxPoint x="160" y="740" />
            </Array>
          </mxGeometry>
        </mxCell>
        <mxCell id="hiu5A2i0qPZkjxsGXid5-9" value="&lt;font face=&quot;Helvetica&quot;&gt;M(1)&lt;/font&gt;" style="text;html=1;align=center;verticalAlign=middle;resizable=0;points=[];autosize=1;strokeColor=none;fillColor=none;fontSize=20;fontFamily=Architects Daughter;" parent="1" vertex="1">
          <mxGeometry x="355" y="1040" width="60" height="40" as="geometry" />
        </mxCell>
        <mxCell id="hiu5A2i0qPZkjxsGXid5-10" value="" style="endArrow=none;html=1;rounded=0;sketch=1;hachureGap=4;jiggle=2;curveFitting=1;fontFamily=Architects Daughter;fontSource=https%3A%2F%2Ffonts.googleapis.com%2Fcss%3Ffamily%3DArchitects%2BDaughter;fontSize=16;" parent="1" edge="1">
          <mxGeometry width="50" height="50" relative="1" as="geometry">
            <mxPoint x="425" y="1060" as="sourcePoint" />
            <mxPoint x="205" y="795" as="targetPoint" />
          </mxGeometry>
        </mxCell>
        <mxCell id="hiu5A2i0qPZkjxsGXid5-11" value="" style="endArrow=none;html=1;rounded=0;sketch=1;hachureGap=4;jiggle=2;curveFitting=1;fontFamily=Architects Daughter;fontSource=https%3A%2F%2Ffonts.googleapis.com%2Fcss%3Ffamily%3DArchitects%2BDaughter;fontSize=16;entryX=1;entryY=1;entryDx=0;entryDy=0;" parent="1" target="-VNbd0uvvO6OSstWt9tD-57" edge="1">
          <mxGeometry width="50" height="50" relative="1" as="geometry">
            <mxPoint x="400" y="800" as="sourcePoint" />
            <mxPoint x="20" y="660" as="targetPoint" />
          </mxGeometry>
        </mxCell>
        <mxCell id="hiu5A2i0qPZkjxsGXid5-12" value="" style="endArrow=none;html=1;rounded=0;sketch=1;hachureGap=4;jiggle=2;curveFitting=1;fontFamily=Architects Daughter;fontSource=https%3A%2F%2Ffonts.googleapis.com%2Fcss%3Ffamily%3DArchitects%2BDaughter;fontSize=16;" parent="1" edge="1">
          <mxGeometry width="50" height="50" relative="1" as="geometry">
            <mxPoint x="510" y="1060" as="sourcePoint" />
            <mxPoint x="400" y="795" as="targetPoint" />
          </mxGeometry>
        </mxCell>
        <mxCell id="BvA31G2sQBCvtQMQqJvq-1" value="" style="endArrow=none;html=1;rounded=0;sketch=1;hachureGap=4;jiggle=2;curveFitting=1;fontFamily=Architects Daughter;fontSource=https%3A%2F%2Ffonts.googleapis.com%2Fcss%3Ffamily%3DArchitects%2BDaughter;fontSize=16;" parent="1" edge="1">
          <mxGeometry width="50" height="50" relative="1" as="geometry">
            <mxPoint x="220" y="1139.5" as="sourcePoint" />
            <mxPoint x="410" y="1139.5" as="targetPoint" />
          </mxGeometry>
        </mxCell>
        <mxCell id="BvA31G2sQBCvtQMQqJvq-2" value="&lt;font face=&quot;Helvetica&quot;&gt;ISA&lt;/font&gt;" style="text;html=1;align=center;verticalAlign=middle;resizable=0;points=[];autosize=1;strokeColor=none;fillColor=none;fontSize=20;fontFamily=Architects Daughter;" parent="1" vertex="1">
          <mxGeometry x="250" y="1100" width="60" height="40" as="geometry" />
        </mxCell>
        <mxCell id="BvA31G2sQBCvtQMQqJvq-3" value="" style="endArrow=none;html=1;rounded=0;sketch=1;hachureGap=4;jiggle=2;curveFitting=1;fontFamily=Architects Daughter;fontSource=https%3A%2F%2Ffonts.googleapis.com%2Fcss%3Ffamily%3DArchitects%2BDaughter;fontSize=16;" parent="1" edge="1">
          <mxGeometry width="50" height="50" relative="1" as="geometry">
            <mxPoint x="215" y="1290" as="sourcePoint" />
            <mxPoint x="385" y="1290" as="targetPoint" />
          </mxGeometry>
        </mxCell>
        <mxCell id="BvA31G2sQBCvtQMQqJvq-4" value="&lt;font face=&quot;Helvetica&quot;&gt;ISA&lt;/font&gt;" style="text;html=1;align=center;verticalAlign=middle;resizable=0;points=[];autosize=1;strokeColor=none;fillColor=none;fontSize=20;fontFamily=Architects Daughter;" parent="1" vertex="1">
          <mxGeometry x="260" y="1250" width="60" height="40" as="geometry" />
        </mxCell>
        <mxCell id="fqfxDYp1j9H8xMBzquT9-1" value="" style="endArrow=none;html=1;rounded=0;sketch=1;hachureGap=4;jiggle=2;curveFitting=1;fontFamily=Architects Daughter;fontSource=https%3A%2F%2Ffonts.googleapis.com%2Fcss%3Ffamily%3DArchitects%2BDaughter;fontSize=16;" parent="1" edge="1">
          <mxGeometry width="50" height="50" relative="1" as="geometry">
            <mxPoint x="205" y="1420.17" as="sourcePoint" />
            <mxPoint x="385" y="1420" as="targetPoint" />
          </mxGeometry>
        </mxCell>
        <mxCell id="fqfxDYp1j9H8xMBzquT9-2" value="&lt;font face=&quot;Helvetica&quot;&gt;ISA&lt;/font&gt;" style="text;html=1;align=center;verticalAlign=middle;resizable=0;points=[];autosize=1;strokeColor=none;fillColor=none;fontSize=20;fontFamily=Architects Daughter;" parent="1" vertex="1">
          <mxGeometry x="265" y="1370" width="60" height="40" as="geometry" />
        </mxCell>
        <mxCell id="3_7mFf9pGxZ_ChmzwfGH-1" value="&lt;font face=&quot;Helvetica&quot;&gt;M(1)&lt;/font&gt;" style="text;html=1;align=center;verticalAlign=middle;resizable=0;points=[];autosize=1;strokeColor=none;fillColor=none;fontSize=20;fontFamily=Architects Daughter;" vertex="1" parent="1">
          <mxGeometry x="-410" y="570" width="60" height="40" as="geometry" />
        </mxCell>
        <mxCell id="3_7mFf9pGxZ_ChmzwfGH-2" value="&lt;font face=&quot;Helvetica&quot;&gt;M(1)&lt;/font&gt;" style="text;html=1;align=center;verticalAlign=middle;resizable=0;points=[];autosize=1;strokeColor=none;fillColor=none;fontSize=20;fontFamily=Architects Daughter;" vertex="1" parent="1">
          <mxGeometry x="-120" y="570" width="60" height="40" as="geometry" />
        </mxCell>
        <mxCell id="3_7mFf9pGxZ_ChmzwfGH-3" value="&lt;font face=&quot;Helvetica&quot;&gt;investeste_in&lt;/font&gt;" style="text;html=1;align=center;verticalAlign=middle;resizable=0;points=[];autosize=1;strokeColor=none;fillColor=none;fontSize=20;fontFamily=Architects Daughter;" vertex="1" parent="1">
          <mxGeometry x="-290" y="570" width="140" height="40" as="geometry" />
        </mxCell>
      </root>
    </mxGraphModel>
  </diagram>
  <diagram id="psKiwpmIP5z3CZ8Y-rT-" name="Pagina-2">
    <mxGraphModel dx="1290" dy="541" grid="1" gridSize="10" guides="1" tooltips="1" connect="1" arrows="1" fold="1" page="1" pageScale="1" pageWidth="827" pageHeight="1169" math="0" shadow="0">
      <root>
        <mxCell id="0" />
        <mxCell id="1" parent="0" />
      </root>
    </mxGraphModel>
  </diagram>
</mxfile>
